<svg width="256" height="256" viewBox="0 0 256 256" fill="none" xmlns="http://www.w3.org/2000/svg">
<rect width="256" height="256" fill="white"/>
<mask id="mask0_98_180" style="mask-type:alpha" maskUnits="userSpaceOnUse" x="13" y="13" width="230" height="230">
<rect x="13" y="13" width="230" height="230" fill="#D9D9D9"/>
</mask>
<g mask="url(#mask0_98_180)">
<path d="M190.5 218.5H65.5L63 39.5H137.5L193 90L190.5 218.5Z" fill="#1C1B1F"/>
<path d="M99.25 185.5H156.75C159.465 185.5 161.741 184.582 163.578 182.745C165.415 180.908 166.333 178.632 166.333 175.917C166.333 173.201 165.415 170.925 163.578 169.089C161.741 167.252 159.465 166.333 156.75 166.333H99.25C96.5347 166.333 94.2587 167.252 92.4219 169.089C90.5851 170.925 89.6667 173.201 89.6667 175.917C89.6667 178.632 90.5851 180.908 92.4219 182.745C94.2587 184.582 96.5347 185.5 99.25 185.5ZM99.25 147.167H156.75C159.465 147.167 161.741 146.248 163.578 144.411C165.415 142.575 166.333 140.299 166.333 137.583C166.333 134.868 165.415 132.592 163.578 130.755C161.741 128.918 159.465 128 156.75 128H99.25C96.5347 128 94.2587 128.918 92.4219 130.755C90.5851 132.592 89.6667 134.868 89.6667 137.583C89.6667 140.299 90.5851 142.575 92.4219 144.411C94.2587 146.248 96.5347 147.167 99.25 147.167ZM70.5 223.833C65.2292 223.833 60.717 221.957 56.9635 218.203C53.2101 214.45 51.3333 209.938 51.3333 204.667V51.3333C51.3333 46.0625 53.2101 41.5503 56.9635 37.7969C60.717 34.0434 65.2292 32.1667 70.5 32.1667H139.26C141.816 32.1667 144.252 32.6458 146.568 33.6042C148.884 34.5625 150.92 35.9201 152.677 37.6771L199.156 84.1563C200.913 85.9132 202.271 87.9497 203.229 90.2656C204.187 92.5816 204.667 95.0174 204.667 97.5729V204.667C204.667 209.938 202.79 214.45 199.036 218.203C195.283 221.957 190.771 223.833 185.5 223.833H70.5ZM137.583 89.6667C137.583 92.3819 138.502 94.658 140.339 96.4948C142.175 98.3316 144.451 99.25 147.167 99.25H185.5L137.583 51.3333V89.6667Z" fill="#1C1B1F"/>
</g>
<path d="M103.032 176V88.96H131.704C140.835 88.96 147.661 91.264 152.184 95.872C156.792 100.48 159.096 106.624 159.096 114.304V121.088C159.096 128.768 156.792 134.955 152.184 139.648C147.661 144.256 140.835 146.56 131.704 146.56H118.392V176H103.032ZM131.704 103.68H118.392V131.84H131.704C135.459 131.84 138.317 130.901 140.28 129.024C142.328 127.147 143.352 124.501 143.352 121.088V114.304C143.352 110.976 142.328 108.373 140.28 106.496C138.317 104.619 135.459 103.68 131.704 103.68Z" fill="white"/>
</svg>
